<svg xmlns="http://www.w3.org/2000/svg" width="500" height="500" viewBox="0 0 500 500"><g fill="#9FA0A0" font-family="'ArialMT'" font-size="11"><text transform="translate(37.098 488.917)">a</text><text transform="translate(67.123 488.917)">b</text><text transform="translate(97.457 488.917)">c</text><text transform="translate(127.173 488.917)">d</text><text transform="translate(157.198 488.917)">e</text><text transform="translate(188.565 488.917)">f</text><text transform="translate(217.248 488.917)">g</text><text transform="translate(247.273 488.917)">h</text><text transform="translate(279.135 488.917)">i</text><text transform="translate(309.412 488.917)">j</text><text transform="translate(337.656 488.917)">k</text><text transform="translate(369.21 488.917)">l</text><text transform="translate(395.875 488.917)">m</text><text transform="translate(427.422 488.917)">n</text><text transform="translate(457.447 488.917)">o</text></g><path d="M40 40h420v420H40zm0 30h420M40 100h420M40 130h420M40 160h420M40 190h420M40 220h420M40 250h420M40 280h420M40 310h420M40 340h420M40 370h420M40 400h420M40 430h420m-30 30V40m-30 420V40m-30 420V40m-30 420V40m-30 420V40m-30 420V40m-30 420V40m-30 420V40m-30 420V40m-30 420V40m-30 420V40m-30 420V40M70 460V40" fill="none" stroke="#000" stroke-miterlimit="10"/><g fill="#9FA0A0" font-family="'ArialMT'" font-size="11"><text transform="translate(483.386 462.803)">1</text><text transform="translate(483.386 432.896)">2</text><text transform="translate(483.386 402.988)">3</text><text transform="translate(483.386 373.081)">4</text><text transform="translate(483.386 343.174)">5</text><text transform="translate(483.386 313.266)">6</text><text transform="translate(483.386 283.359)">7</text><text transform="translate(483.386 253.452)">8</text><text transform="translate(483.386 223.544)">9</text><text transform="translate(480.327 193.637)">10</text><text transform="translate(480.735 163.73)">11</text><text transform="translate(480.327 133.822)">12</text><text transform="translate(480.327 103.915)">13</text><text transform="translate(480.327 74.008)">14</text><text transform="translate(480.326 44.1)">15</text></g><circle fill="#898989" cx="130" cy="370" r="3.3"/><circle fill="#3E3A39" cx="826.033" cy="603.586" r="3.3"/><circle fill="#898989" cx="250" cy="250" r="3.3"/><circle fill="#898989" cx="370" cy="130" r="3.3"/><circle fill="#898989" cx="130" cy="130" r="3.3"/><circle fill="#898989" cx="370" cy="370" r="3.3"/></svg>