<svg height="256" viewBox="0 0 256 256" width="256" xmlns="http://www.w3.org/2000/svg"><path d="M249.422 30.679c-2.721-4.985-5.816-9.536-9.793-13.521-3.992-3.998-8.709-7.587-13.703-10.314-8.381-4.576-18.788-6.856-29.002-6.856H59.075c-10.444 0-20.542 2.345-29.265 6.949-5.022 2.649-9.588 6.146-13.502 10.126-3.932 3.998-7.491 8.488-10.046 13.572-4.289 8.533-6.274 18.477-6.274 28.65v137.429c0 10.327 1.671 20.679 6.296 29.135 2.681 4.9 6.191 9.86 10.087 13.794 3.934 3.971 8.583 7.226 13.502 9.956 8.466 4.7 18.842 6.413 29.202 6.413h137.849c10.568 0 20.399-1.523 28.982-6.401 4.739-2.692 9.879-6.113 13.687-9.966 3.923-3.969 7.2-8.851 9.886-13.799 4.566-8.415 6.533-18.874 6.533-29.132V59.285c0-10.307-1.981-20.161-6.59-28.606z" fill-rule="evenodd" clip-rule="evenodd" fill="#64ab23"/><path d="M99.586 47.146c-37.49-.565-68.642 26.99-68.642 59.488 0 18.759 8.821 35.033 25.896 46.981 0 0-6.258 20.657-6.169 21.071.089.415 1.451 1.229 1.925.963s22.622-13.477 22.622-13.477c16.974 5.828 26.869 3.89 27.435 3.851-1.694-4.961-2.804-12.686-1.54-19.967 6.617-38.105 45.622-49.958 66.999-47.933-5.903-27.519-31.544-50.42-68.526-50.977z" fill-rule="evenodd" clip-rule="evenodd" fill="#fff"/><path d="M222.99 151.854c0-27.841-26.918-49.166-58.146-49.166-33.065 0-59.437 21.807-59.437 49.646 0 27.89 25.084 50.979 59.475 51.168 6.922.039 17.232-1.741 24.184-4.646 0 0 16.619 10.079 17.55 10.005a1.54 1.54 0 0 0 1.444-1.444c.037-.632-5.295-16.364-5.295-16.364 14.27-11.178 20.225-23.495 20.225-39.199z" fill-rule="evenodd" clip-rule="evenodd" fill="#fff"/><path d="M73.528 78.422c-4.918 0-8.904 3.988-8.904 8.908s3.986 8.908 8.904 8.908 8.905-3.988 8.905-8.908-3.987-8.908-8.905-8.908zm53.907 0c-4.917 0-8.904 3.988-8.904 8.908s3.987 8.908 8.904 8.908c4.918 0 8.905-3.988 8.905-8.908s-3.986-8.908-8.905-8.908zm15.646 47.366c-4.351 0-7.878 3.534-7.878 7.895 0 4.359 3.527 7.894 7.878 7.894s7.878-3.534 7.878-7.894c0-4.361-3.527-7.895-7.878-7.895zm42.126 0c-4.351 0-7.878 3.534-7.878 7.895 0 4.359 3.527 7.894 7.878 7.894 4.352 0 7.879-3.534 7.879-7.894 0-4.361-3.527-7.895-7.879-7.895z" fill-rule="evenodd" clip-rule="evenodd" fill="#60a721"/></svg>