<svg height="256" viewBox="0 0 256 256" width="256" xmlns="http://www.w3.org/2000/svg"><path d="M249.422 30.68c-2.721-4.986-5.816-9.537-9.793-13.521-3.992-3.998-8.709-7.587-13.703-10.314-8.381-4.576-18.788-6.855-29.002-6.855H59.075c-10.444 0-20.542 2.344-29.265 6.948-5.022 2.649-9.588 6.146-13.502 10.126-3.932 3.998-7.491 8.488-10.046 13.572-4.289 8.533-6.274 18.478-6.274 28.65v137.43c0 10.326 1.671 20.678 6.296 29.134 2.681 4.9 6.191 9.86 10.087 13.795 3.934 3.97 8.583 7.225 13.503 9.955 8.465 4.7 18.842 6.413 29.201 6.413h137.849c10.568 0 20.399-1.523 28.982-6.401 4.739-2.692 9.879-6.113 13.687-9.966 3.923-3.968 7.2-8.851 9.886-13.799 4.566-8.415 6.533-18.874 6.533-29.131V59.285c0-10.307-1.981-20.161-6.59-28.605z" fill-rule="evenodd" clip-rule="evenodd" fill="#ffe591"/><path d="M169.217 151.074c-2.088-20.866-29.861-35.239-62.04-32.095-32.171 3.145-56.568 22.611-54.478 43.479 2.09 20.876 29.865 35.248 62.039 32.11 32.178-3.143 56.565-22.611 54.479-43.494z" fill-rule="evenodd" clip-rule="evenodd" fill="#fff"/><path d="M179.092 125.276c-2.738-.812-4.615-1.361-3.18-4.917 3.104-7.715 3.425-14.372.059-19.121-6.311-8.908-23.572-8.427-43.359-.239 0-.011-6.212 2.687-4.625-2.184 3.044-9.67 2.585-17.771-2.151-22.444-10.736-10.616-39.284.399-63.764 24.585-18.333 18.12-28.979 37.325-28.979 53.928 0 31.76 41.215 51.07 81.536 51.07 52.858 0 88.019-30.345 88.019-54.443 0-14.559-12.409-22.819-23.556-26.235zm-64.354 69.293c-32.174 3.138-59.949-11.234-62.039-32.11-2.09-20.868 22.307-40.335 54.478-43.479 32.179-3.145 59.952 11.229 62.04 32.095 2.086 20.882-22.301 40.35-54.479 43.494z" fill-rule="evenodd" clip-rule="evenodd" fill="#cd201f"/><path d="M117.572 134.441c-15.319-3.905-32.636 3.573-39.29 16.802-6.777 13.483-.225 28.456 15.254 33.354 16.032 5.063 34.93-2.701 41.5-17.255 6.48-14.235-1.61-28.888-17.464-32.901zm-11.698 34.448c-3.115 4.863-9.783 6.996-14.806 4.749-4.949-2.204-6.411-7.861-3.296-12.604 3.076-4.729 9.52-6.834 14.505-4.785 5.044 2.105 6.654 7.72 3.597 12.64zm10.257-12.904c-1.125 1.887-3.615 2.794-5.565 2.007-1.917-.772-2.518-2.878-1.429-4.735 1.122-1.844 3.513-2.744 5.427-1.999 1.944.694 2.642 2.828 1.567 4.727z" fill-rule="evenodd" clip-rule="evenodd" fill="#232323"/><path d="M212.111 67.308c-12.48-14.403-30.891-19.894-47.882-16.133h-.007c-3.932.876-6.438 4.901-5.598 8.986.839 4.089 4.706 6.701 8.639 5.829 12.088-2.672 25.168 1.236 34.043 11.467 8.863 10.23 11.271 24.185 7.475 36.416l.002.004c-1.236 3.986.856 8.247 4.689 9.535 3.817 1.288 7.922-.891 9.16-4.864 0-.008 0-.022.003-.03 5.33-17.207 1.96-36.822-10.524-51.21zm-42.49 10.156c-3.383.751-5.54 4.218-4.815 7.743.726 3.51 4.052 5.767 7.429 5.001v.007c4.048-.89 8.436.409 11.404 3.831 2.975 3.43 3.773 8.104 2.497 12.203h.007c-1.061 3.422.738 7.103 4.03 8.214 3.292 1.097 6.823-.773 7.884-4.203 2.603-8.383.977-17.936-5.111-24.95-6.075-7.014-15.045-9.678-23.325-7.846z" fill-rule="evenodd" clip-rule="evenodd" fill="#dd880c"/></svg>