<svg height="256" viewBox="0 0 256 256" width="256" xmlns="http://www.w3.org/2000/svg"><path d="M249.422 30.68c-2.721-4.986-5.816-9.537-9.793-13.521-3.992-3.998-8.709-7.588-13.703-10.314-8.381-4.576-18.788-6.856-29.002-6.856H59.075c-10.444 0-20.542 2.345-29.265 6.948-5.022 2.651-9.588 6.147-13.502 10.127-3.932 3.998-7.491 8.488-10.046 13.572C1.973 39.169-.012 49.113-.012 59.285v137.431c0 10.326 1.671 20.678 6.296 29.134 2.681 4.9 6.191 9.861 10.087 13.794 3.934 3.971 8.583 7.226 13.503 9.956 8.465 4.7 18.842 6.413 29.201 6.413h137.849c10.568 0 20.399-1.523 28.982-6.401 4.739-2.692 9.879-6.114 13.687-9.966 3.923-3.969 7.2-8.851 9.886-13.798 4.566-8.416 6.533-18.875 6.533-29.132V59.284c0-10.306-1.981-20.16-6.59-28.604z" fill-rule="evenodd" clip-rule="evenodd" fill="#1989c8"/><path d="M97.396 138.936c23.78 0 14.415.017 37.703.017-.188-10.444-2.423-14.207-3.933-14.376-23.826 0-4.903-.009-32.721-.009.061-.952 1.248-24.032 1.711-44.651h30.967c.759-7.608-1.071-14.187-4.518-14.604-42.003 0-16.319.046-54.921.046.846-3.268 1.864-7.133 3.037-10.841 1.802-5.696 3.832-11.117 4.768-13.345-.765-.476-2.093-.146-5.421.646-3.878 1.158-6.114 2.305-9.387 5.107-1.708 1.462-2.974 3.352-3.993 5.457-3.536 8.688-10.581 32.93-19.719 49.619 14.18-.85 21.152-9.007 23.5-15.481.874-2.41 1.773-4.649 2.288-6.693 5.981-.046 10.551-.049 18.837-.049.087 8.2-.119 24.132-1.449 44.707-16.61 0-24.322-.116-33.836-.116-4.892 1.327-7.483 9.267-8.266 14.46l.138.138h40.296c-.984 7.76-1.297 11.573-4.575 22.944-5.571 16.796-14.218 30.188-26.335 42.239-3.235 3.218-7.735 7.293-12.147 10.768l-.414.552c4.15 3.599 18.522-.054 21.948-1.242 2.776-.963 5.575-1.706 7.592-3.451 7.711-6.67 17.196-21.411 23.258-43.514 21.914 25.576 26.99 33.265 32.509 39.648h.552c1.743-6.452 2.98-16.668.69-21.672-.153-.705-.728-1.538-1.335-2.479-10.986-13.144-10.833-12.888-22.761-25.983-7.073 5.667-8.69 7.072-8.69 7.072s1.647-6.182 2.143-8.358c1.581-6.956 1.699-10.107 2.484-16.556zm119.039-75.915c-35.401 0-28.577.056-70.083.056-.9 0-2.043.842-2.043 1.964 0 79.036-.008 11.016-.008 130.923 0 .825.762 1.854 2.041 1.854 8.018 0 8.875.012 11.088-.01.637.004 1.936 7.142 4.764 14.982 15.087-9.789 21.833-13.955 25.261-14.923 9.708-.046 27.491-.059 29.018-.059.787 0 1.738-.966 1.738-1.902 0-87.302.052-41.637.052-131.17-.001-1.057-1.186-1.651-1.828-1.715zM203.377 181.97c0 .567-.576 1.152-1.053 1.152-.925 0-9.195.008-15.077.035-.208 0-.55.138-.82.324-3.699 2.552-9.214 6.085-18.239 11.541-1.552-5.238-2.928-11.879-3.314-11.882-1.34.014.373.006-4.483.006-.775 0-1.237-.623-1.237-1.123 0-72.644.005-55.591.005-103.474 0-.68.692-1.19 1.237-1.19 25.146 0 20.291-.033 41.739-.033.523 0 1.275.503 1.275 1.143-.001 54.242-.033 50.61-.033 103.501z" fill-rule="evenodd" clip-rule="evenodd" fill="#fff"/></svg>